<mxfile host="app.diagrams.net" modified="2021-01-08T18:31:42.516Z" agent="5.0 (X11; Linux x86_64) AppleWebKit/537.36 (KHTML, like Gecko) Chrome/87.0.4280.88 Safari/537.36" etag="nfKorrPdiIMu-EiclyMX" version="14.1.8" type="github">
  <diagram id="u4z7etKxScKo9vpYu9mf" name="Page-1">
    <mxGraphModel dx="744" dy="430" grid="1" gridSize="10" guides="1" tooltips="1" connect="1" arrows="1" fold="1" page="1" pageScale="1" pageWidth="850" pageHeight="1100" math="0" shadow="0">
      <root>
        <mxCell id="0" />
        <mxCell id="1" parent="0" />
        <mxCell id="zluDrGRWoLjfuO-596hP-1" value="Users" style="rounded=0;whiteSpace=wrap;html=1;" vertex="1" parent="1">
          <mxGeometry x="139" y="200" width="131" height="70" as="geometry" />
        </mxCell>
        <mxCell id="zluDrGRWoLjfuO-596hP-2" value="Drowsiness&lt;br&gt;Detection&amp;nbsp;&lt;br&gt;System" style="ellipse;whiteSpace=wrap;html=1;aspect=fixed;" vertex="1" parent="1">
          <mxGeometry x="385" y="180" width="100" height="100" as="geometry" />
        </mxCell>
        <mxCell id="zluDrGRWoLjfuO-596hP-8" value="" style="endArrow=classic;html=1;exitX=1;exitY=0.25;exitDx=0;exitDy=0;" edge="1" parent="1" source="zluDrGRWoLjfuO-596hP-1">
          <mxGeometry width="50" height="50" relative="1" as="geometry">
            <mxPoint x="270" y="250" as="sourcePoint" />
            <mxPoint x="386" y="218" as="targetPoint" />
          </mxGeometry>
        </mxCell>
        <mxCell id="zluDrGRWoLjfuO-596hP-9" value="Driver" style="rounded=0;whiteSpace=wrap;html=1;" vertex="1" parent="1">
          <mxGeometry x="580" y="200" width="131" height="70" as="geometry" />
        </mxCell>
        <mxCell id="zluDrGRWoLjfuO-596hP-10" value="" style="endArrow=classic;html=1;exitX=0;exitY=0.25;exitDx=0;exitDy=0;entryX=1.016;entryY=0.379;entryDx=0;entryDy=0;entryPerimeter=0;" edge="1" parent="1" source="zluDrGRWoLjfuO-596hP-9" target="zluDrGRWoLjfuO-596hP-2">
          <mxGeometry width="50" height="50" relative="1" as="geometry">
            <mxPoint x="500" y="240" as="sourcePoint" />
            <mxPoint x="550" y="190" as="targetPoint" />
          </mxGeometry>
        </mxCell>
        <mxCell id="zluDrGRWoLjfuO-596hP-11" value="" style="endArrow=classic;html=1;entryX=1;entryY=0.75;entryDx=0;entryDy=0;exitX=0.05;exitY=0.725;exitDx=0;exitDy=0;exitPerimeter=0;" edge="1" parent="1" source="zluDrGRWoLjfuO-596hP-2" target="zluDrGRWoLjfuO-596hP-1">
          <mxGeometry width="50" height="50" relative="1" as="geometry">
            <mxPoint x="320" y="340" as="sourcePoint" />
            <mxPoint x="370" y="290" as="targetPoint" />
          </mxGeometry>
        </mxCell>
        <mxCell id="zluDrGRWoLjfuO-596hP-12" value="" style="endArrow=classic;html=1;entryX=0;entryY=0.75;entryDx=0;entryDy=0;" edge="1" parent="1" target="zluDrGRWoLjfuO-596hP-9">
          <mxGeometry width="50" height="50" relative="1" as="geometry">
            <mxPoint x="482" y="253" as="sourcePoint" />
            <mxPoint x="570" y="270" as="targetPoint" />
          </mxGeometry>
        </mxCell>
        <mxCell id="zluDrGRWoLjfuO-596hP-13" value="Fetch Input" style="text;html=1;strokeColor=none;fillColor=none;align=center;verticalAlign=middle;whiteSpace=wrap;rounded=0;" vertex="1" parent="1">
          <mxGeometry x="510" y="185" width="40" height="20" as="geometry" />
        </mxCell>
        <mxCell id="zluDrGRWoLjfuO-596hP-14" value="Response Output" style="text;html=1;strokeColor=none;fillColor=none;align=center;verticalAlign=middle;whiteSpace=wrap;rounded=0;" vertex="1" parent="1">
          <mxGeometry x="510" y="260" width="40" height="20" as="geometry" />
        </mxCell>
        <mxCell id="zluDrGRWoLjfuO-596hP-15" value="Response Output" style="text;html=1;strokeColor=none;fillColor=none;align=center;verticalAlign=middle;whiteSpace=wrap;rounded=0;" vertex="1" parent="1">
          <mxGeometry x="310" y="260" width="40" height="20" as="geometry" />
        </mxCell>
        <mxCell id="zluDrGRWoLjfuO-596hP-16" value="Request Output" style="text;html=1;strokeColor=none;fillColor=none;align=center;verticalAlign=middle;whiteSpace=wrap;rounded=0;" vertex="1" parent="1">
          <mxGeometry x="300" y="190" width="40" height="20" as="geometry" />
        </mxCell>
      </root>
    </mxGraphModel>
  </diagram>
</mxfile>
